<?xml version="1.0" encoding="UTF-8"?>
<!--Generator: Apple Native CoreSVG 123-->
<!DOCTYPE svg
PUBLIC "-//W3C//DTD SVG 1.1//EN"
       "http://www.w3.org/Graphics/SVG/1.1/DTD/svg11.dtd">
<svg version="1.1" xmlns="http://www.w3.org/2000/svg" xmlns:xlink="http://www.w3.org/1999/xlink" width="3300" height="2200">
 <!--glyph: "uni10039C.medium", point size: 100.000000, font version: "Version 15.0d7e11", template writer version: "5"-->
 <g id="Notes">
  <rect height="2200" id="artboard" style="fill:white;opacity:1" width="3300" x="0" y="0"/>
  <line id="" style="fill:none;stroke:black;opacity:1;stroke-width:0.5;" x1="263" x2="3036" y1="292" y2="292"/>
  <text style="stroke:none;fill:black;font-family:-apple-system,&quot;SF Pro Display&quot;,&quot;SF Pro Text&quot;,Helvetica,sans-serif;font-weight:bold;" transform="matrix(1 0 0 1 263 322)">Weight/Scale Variations</text>
  <text style="stroke:none;fill:black;font-family:-apple-system,&quot;SF Pro Display&quot;,&quot;SF Pro Text&quot;,Helvetica,sans-serif;text-anchor:middle;" transform="matrix(1 0 0 1 559.711 322)">Ultralight</text>
  <text style="stroke:none;fill:black;font-family:-apple-system,&quot;SF Pro Display&quot;,&quot;SF Pro Text&quot;,Helvetica,sans-serif;text-anchor:middle;" transform="matrix(1 0 0 1 856.422 322)">Thin</text>
  <text style="stroke:none;fill:black;font-family:-apple-system,&quot;SF Pro Display&quot;,&quot;SF Pro Text&quot;,Helvetica,sans-serif;text-anchor:middle;" transform="matrix(1 0 0 1 1153.13 322)">Light</text>
  <text style="stroke:none;fill:black;font-family:-apple-system,&quot;SF Pro Display&quot;,&quot;SF Pro Text&quot;,Helvetica,sans-serif;text-anchor:middle;" transform="matrix(1 0 0 1 1449.84 322)">Regular</text>
  <text style="stroke:none;fill:black;font-family:-apple-system,&quot;SF Pro Display&quot;,&quot;SF Pro Text&quot;,Helvetica,sans-serif;text-anchor:middle;" transform="matrix(1 0 0 1 1746.56 322)">Medium</text>
  <text style="stroke:none;fill:black;font-family:-apple-system,&quot;SF Pro Display&quot;,&quot;SF Pro Text&quot;,Helvetica,sans-serif;text-anchor:middle;" transform="matrix(1 0 0 1 2043.27 322)">Semibold</text>
  <text style="stroke:none;fill:black;font-family:-apple-system,&quot;SF Pro Display&quot;,&quot;SF Pro Text&quot;,Helvetica,sans-serif;text-anchor:middle;" transform="matrix(1 0 0 1 2339.98 322)">Bold</text>
  <text style="stroke:none;fill:black;font-family:-apple-system,&quot;SF Pro Display&quot;,&quot;SF Pro Text&quot;,Helvetica,sans-serif;text-anchor:middle;" transform="matrix(1 0 0 1 2636.69 322)">Heavy</text>
  <text style="stroke:none;fill:black;font-family:-apple-system,&quot;SF Pro Display&quot;,&quot;SF Pro Text&quot;,Helvetica,sans-serif;text-anchor:middle;" transform="matrix(1 0 0 1 2933.4 322)">Black</text>
  <line id="" style="fill:none;stroke:black;opacity:1;stroke-width:0.5;" x1="263" x2="3036" y1="1903" y2="1903"/>
  <g id="" transform="matrix(1 0 0 1 263 1933)">
   <path d="M 9.24805 0.830078 C 13.5547 0.830078 17.1387 -2.74414 17.1387 -7.05078 C 17.1387 -11.3574 13.5449 -14.9316 9.23828 -14.9316 C 4.94141 -14.9316 1.36719 -11.3574 1.36719 -7.05078 C 1.36719 -2.74414 4.95117 0.830078 9.24805 0.830078 Z M 9.24805 -0.654297 C 5.70312 -0.654297 2.87109 -3.49609 2.87109 -7.05078 C 2.87109 -10.6055 5.69336 -13.4473 9.23828 -13.4473 C 12.793 -13.4473 15.6348 -10.6055 15.6445 -7.05078 C 15.6543 -3.49609 12.8027 -0.654297 9.24805 -0.654297 Z M 9.22852 -3.42773 C 9.69727 -3.42773 9.9707 -3.74023 9.9707 -4.25781 L 9.9707 -6.31836 L 12.1973 -6.31836 C 12.6953 -6.31836 13.0371 -6.57227 13.0371 -7.04102 C 13.0371 -7.51953 12.7148 -7.7832 12.1973 -7.7832 L 9.9707 -7.7832 L 9.9707 -10.0098 C 9.9707 -10.5273 9.69727 -10.8496 9.22852 -10.8496 C 8.75977 -10.8496 8.50586 -10.5078 8.50586 -10.0098 L 8.50586 -7.7832 L 6.29883 -7.7832 C 5.78125 -7.7832 5.44922 -7.51953 5.44922 -7.04102 C 5.44922 -6.57227 5.80078 -6.31836 6.29883 -6.31836 L 8.50586 -6.31836 L 8.50586 -4.25781 C 8.50586 -3.75977 8.75977 -3.42773 9.22852 -3.42773 Z"/>
  </g>
  <g id="" transform="matrix(1 0 0 1 281.506 1933)">
   <path d="M 11.709 2.91016 C 17.1582 2.91016 21.6699 -1.60156 21.6699 -7.05078 C 21.6699 -12.4902 17.1484 -17.0117 11.6992 -17.0117 C 6.25977 -17.0117 1.74805 -12.4902 1.74805 -7.05078 C 1.74805 -1.60156 6.26953 2.91016 11.709 2.91016 Z M 11.709 1.25 C 7.09961 1.25 3.41797 -2.44141 3.41797 -7.05078 C 3.41797 -11.6504 7.08984 -15.3516 11.6992 -15.3516 C 16.3086 -15.3516 20 -11.6504 20.0098 -7.05078 C 20.0195 -2.44141 16.3184 1.25 11.709 1.25 Z M 11.6895 -2.41211 C 12.207 -2.41211 12.5195 -2.77344 12.5195 -3.33984 L 12.5195 -6.23047 L 15.5762 -6.23047 C 16.123 -6.23047 16.5039 -6.51367 16.5039 -7.03125 C 16.5039 -7.55859 16.1426 -7.86133 15.5762 -7.86133 L 12.5195 -7.86133 L 12.5195 -10.9277 C 12.5195 -11.5039 12.207 -11.8555 11.6895 -11.8555 C 11.1719 -11.8555 10.8789 -11.4844 10.8789 -10.9277 L 10.8789 -7.86133 L 7.83203 -7.86133 C 7.26562 -7.86133 6.89453 -7.55859 6.89453 -7.03125 C 6.89453 -6.51367 7.28516 -6.23047 7.83203 -6.23047 L 10.8789 -6.23047 L 10.8789 -3.33984 C 10.8789 -2.79297 11.1719 -2.41211 11.6895 -2.41211 Z"/>
  </g>
  <g id="" transform="matrix(1 0 0 1 304.924 1933)">
   <path d="M 14.9707 5.67383 C 21.9336 5.67383 27.6953 -0.078125 27.6953 -7.04102 C 27.6953 -14.0039 21.9238 -19.7559 14.9609 -19.7559 C 8.00781 -19.7559 2.25586 -14.0039 2.25586 -7.04102 C 2.25586 -0.078125 8.01758 5.67383 14.9707 5.67383 Z M 14.9707 3.85742 C 8.93555 3.85742 4.08203 -1.00586 4.08203 -7.04102 C 4.08203 -13.0762 8.92578 -17.9395 14.9609 -17.9395 C 21.0059 -17.9395 25.8594 -13.0762 25.8691 -7.04102 C 25.8789 -1.00586 21.0156 3.85742 14.9707 3.85742 Z M 14.9512 -1.06445 C 15.5176 -1.06445 15.8691 -1.45508 15.8691 -2.06055 L 15.8691 -6.13281 L 20.1074 -6.13281 C 20.6934 -6.13281 21.1133 -6.46484 21.1133 -7.02148 C 21.1133 -7.59766 20.7227 -7.93945 20.1074 -7.93945 L 15.8691 -7.93945 L 15.8691 -12.1875 C 15.8691 -12.8027 15.5176 -13.1934 14.9512 -13.1934 C 14.3848 -13.1934 14.0625 -12.7832 14.0625 -12.1875 L 14.0625 -7.93945 L 9.83398 -7.93945 C 9.21875 -7.93945 8.80859 -7.59766 8.80859 -7.02148 C 8.80859 -6.46484 9.23828 -6.13281 9.83398 -6.13281 L 14.0625 -6.13281 L 14.0625 -2.06055 C 14.0625 -1.47461 14.3848 -1.06445 14.9512 -1.06445 Z"/>
  </g>
  <text style="stroke:none;fill:black;font-family:-apple-system,&quot;SF Pro Display&quot;,&quot;SF Pro Text&quot;,Helvetica,sans-serif;font-weight:bold;" transform="matrix(1 0 0 1 263 1953)">Design Variations</text>
  <text style="stroke:none;fill:black;font-family:-apple-system,&quot;SF Pro Display&quot;,&quot;SF Pro Text&quot;,Helvetica,sans-serif;" transform="matrix(1 0 0 1 263 1971)">Symbols are supported in up to nine weights and three scales.</text>
  <text style="stroke:none;fill:black;font-family:-apple-system,&quot;SF Pro Display&quot;,&quot;SF Pro Text&quot;,Helvetica,sans-serif;" transform="matrix(1 0 0 1 263 1989)">For optimal layout with text and other symbols, vertically align</text>
  <text style="stroke:none;fill:black;font-family:-apple-system,&quot;SF Pro Display&quot;,&quot;SF Pro Text&quot;,Helvetica,sans-serif;" transform="matrix(1 0 0 1 263 2007)">symbols with the adjacent text.</text>
  <rect height="14" id="" style="fill:#00AEEF;stroke:none;opacity:0.4;" width="3" x="776" y="1919"/>
  <g id="" transform="matrix(1 0 0 1 779 1933)">
   <path d="M 10.5273 0 L 12.373 0 L 7.17773 -14.0918 L 5.43945 -14.0918 L 0.244141 0 L 2.08984 0 L 3.50586 -4.0332 L 9.11133 -4.0332 Z M 6.2793 -11.9531 L 6.33789 -11.9531 L 8.59375 -5.52734 L 4.02344 -5.52734 Z"/>
  </g>
  <rect height="14" id="" style="fill:#00AEEF;stroke:none;opacity:0.4;" width="3" x="791.617" y="1919"/>
  <text style="stroke:none;fill:black;font-family:-apple-system,&quot;SF Pro Display&quot;,&quot;SF Pro Text&quot;,Helvetica,sans-serif;font-weight:bold;" transform="matrix(1 0 0 1 776 1953)">Margins</text>
  <text style="stroke:none;fill:black;font-family:-apple-system,&quot;SF Pro Display&quot;,&quot;SF Pro Text&quot;,Helvetica,sans-serif;" transform="matrix(1 0 0 1 776 1971)">Leading and trailing margins on the left and right side of each symbol</text>
  <text style="stroke:none;fill:black;font-family:-apple-system,&quot;SF Pro Display&quot;,&quot;SF Pro Text&quot;,Helvetica,sans-serif;" transform="matrix(1 0 0 1 776 1989)">can be adjusted by modifying the width of the blue rectangles.</text>
  <text style="stroke:none;fill:black;font-family:-apple-system,&quot;SF Pro Display&quot;,&quot;SF Pro Text&quot;,Helvetica,sans-serif;" transform="matrix(1 0 0 1 776 2007)">Modifications are automatically applied proportionally to all</text>
  <text style="stroke:none;fill:black;font-family:-apple-system,&quot;SF Pro Display&quot;,&quot;SF Pro Text&quot;,Helvetica,sans-serif;" transform="matrix(1 0 0 1 776 2025)">scales and weights.</text>
  <g id="" transform="matrix(1 0 0 1 1289 1933)">
   <path d="M 2.83203 3.11523 L 4.375 4.6582 C 5.22461 5.48828 6.19141 5.41992 7.06055 4.46289 L 17.2754 -6.66016 C 17.7051 -6.36719 18.0957 -6.37695 18.5645 -6.47461 L 19.6094 -6.68945 L 20.3027 -5.99609 L 20.2539 -5.47852 C 20.1855 -4.95117 20.3516 -4.53125 20.8496 -4.0332 L 21.6602 -3.22266 C 22.168 -2.71484 22.8223 -2.68555 23.3008 -3.16406 L 26.5527 -6.41602 C 27.0312 -6.89453 27.0117 -7.54883 26.5039 -8.05664 L 25.6836 -8.87695 C 25.1855 -9.375 24.7754 -9.55078 24.2383 -9.47266 L 23.7109 -9.41406 L 23.0566 -10.0781 L 23.3398 -11.2207 C 23.4863 -11.7871 23.3398 -12.2559 22.7148 -12.8613 L 20.3027 -15.2539 C 16.7578 -18.7793 12.2266 -18.6719 9.11133 -15.5371 C 8.69141 -15.1074 8.64258 -14.5215 8.91602 -14.0918 C 9.15039 -13.7207 9.62891 -13.4961 10.2734 -13.6621 C 11.7871 -14.043 13.3008 -13.9258 14.7852 -12.9199 L 14.1602 -11.3379 C 13.9258 -10.752 13.9453 -10.2734 14.1797 -9.83398 L 3.01758 0.439453 C 2.08008 1.30859 1.97266 2.25586 2.83203 3.11523 Z M 10.6738 -15.1465 C 13.3398 -17.1387 16.6504 -16.8262 19.0527 -14.4141 L 21.6797 -11.8066 C 21.9141 -11.5723 21.9434 -11.3867 21.8848 -11.0938 L 21.5039 -9.53125 L 23.0762 -7.95898 L 24.043 -8.04688 C 24.3262 -8.07617 24.4141 -8.05664 24.6387 -7.83203 L 25.2637 -7.20703 L 22.5098 -4.46289 L 21.8848 -5.07812 C 21.6602 -5.30273 21.6406 -5.40039 21.6699 -5.68359 L 21.7578 -6.64062 L 20.1953 -8.20312 L 18.5742 -7.89062 C 18.291 -7.83203 18.1445 -7.83203 17.9102 -8.07617 L 15.7324 -10.2539 C 15.5078 -10.4883 15.4785 -10.625 15.6055 -10.9473 L 16.5527 -13.2227 C 14.9512 -14.7559 12.8418 -15.6055 10.8008 -14.9512 C 10.7129 -14.9219 10.6445 -14.9414 10.6152 -14.9805 C 10.5859 -15.0293 10.5859 -15.0781 10.6738 -15.1465 Z M 4.10156 2.41211 C 3.61328 1.91406 3.78906 1.61133 4.12109 1.30859 L 15.0781 -8.80859 L 16.3086 -7.57812 L 6.15234 3.34961 C 5.84961 3.68164 5.46875 3.7793 5.06836 3.37891 Z"/>
  </g>
  <text style="stroke:none;fill:black;font-family:-apple-system,&quot;SF Pro Display&quot;,&quot;SF Pro Text&quot;,Helvetica,sans-serif;font-weight:bold;" transform="matrix(1 0 0 1 1289 1953)">Exporting</text>
  <text style="stroke:none;fill:black;font-family:-apple-system,&quot;SF Pro Display&quot;,&quot;SF Pro Text&quot;,Helvetica,sans-serif;" transform="matrix(1 0 0 1 1289 1971)">Symbols should be outlined when exporting to ensure the</text>
  <text style="stroke:none;fill:black;font-family:-apple-system,&quot;SF Pro Display&quot;,&quot;SF Pro Text&quot;,Helvetica,sans-serif;" transform="matrix(1 0 0 1 1289 1989)">design is preserved when submitting to Xcode.</text>
  <text id="template-version" style="stroke:none;fill:black;font-family:-apple-system,&quot;SF Pro Display&quot;,&quot;SF Pro Text&quot;,Helvetica,sans-serif;text-anchor:end;" transform="matrix(1 0 0 1 3036 1933)">Template v.1.0</text>
  <text style="stroke:none;fill:black;font-family:-apple-system,&quot;SF Pro Display&quot;,&quot;SF Pro Text&quot;,Helvetica,sans-serif;text-anchor:end;" transform="matrix(1 0 0 1 3036 1951)">Generated from briefcase</text>
  <text style="stroke:none;fill:black;font-family:-apple-system,&quot;SF Pro Display&quot;,&quot;SF Pro Text&quot;,Helvetica,sans-serif;text-anchor:end;" transform="matrix(1 0 0 1 3036 1969)">Typeset at 100 points</text>
  <text style="stroke:none;fill:black;font-family:-apple-system,&quot;SF Pro Display&quot;,&quot;SF Pro Text&quot;,Helvetica,sans-serif;" transform="matrix(1 0 0 1 263 726)">Small</text>
  <text style="stroke:none;fill:black;font-family:-apple-system,&quot;SF Pro Display&quot;,&quot;SF Pro Text&quot;,Helvetica,sans-serif;" transform="matrix(1 0 0 1 263 1156)">Medium</text>
  <text style="stroke:none;fill:black;font-family:-apple-system,&quot;SF Pro Display&quot;,&quot;SF Pro Text&quot;,Helvetica,sans-serif;" transform="matrix(1 0 0 1 263 1586)">Large</text>
 </g>
 <g id="Guides">
  <g id="H-reference" style="fill:#27AAE1;stroke:none;" transform="matrix(1 0 0 1 339 696)">
   <path d="M 54.9316 0 L 57.666 0 L 30.5664 -70.459 L 28.0762 -70.459 L 0.976562 0 L 3.66211 0 L 12.9395 -24.4629 L 45.7031 -24.4629 Z M 29.1992 -67.0898 L 29.4434 -67.0898 L 44.8242 -26.709 L 13.8184 -26.709 Z"/>
  </g>
  <line id="Baseline-S" style="fill:none;stroke:#27AAE1;opacity:1;stroke-width:0.577;" x1="263" x2="3036" y1="696" y2="696"/>
  <line id="Capline-S" style="fill:none;stroke:#27AAE1;opacity:1;stroke-width:0.577;" x1="263" x2="3036" y1="625.541" y2="625.541"/>
  <g id="H-reference" style="fill:#27AAE1;stroke:none;" transform="matrix(1 0 0 1 339 1126)">
   <path d="M 54.9316 0 L 57.666 0 L 30.5664 -70.459 L 28.0762 -70.459 L 0.976562 0 L 3.66211 0 L 12.9395 -24.4629 L 45.7031 -24.4629 Z M 29.1992 -67.0898 L 29.4434 -67.0898 L 44.8242 -26.709 L 13.8184 -26.709 Z"/>
  </g>
  <line id="Baseline-M" style="fill:none;stroke:#27AAE1;opacity:1;stroke-width:0.577;" x1="263" x2="3036" y1="1126" y2="1126"/>
  <line id="Capline-M" style="fill:none;stroke:#27AAE1;opacity:1;stroke-width:0.577;" x1="263" x2="3036" y1="1055.54" y2="1055.54"/>
  <g id="H-reference" style="fill:#27AAE1;stroke:none;" transform="matrix(1 0 0 1 339 1556)">
   <path d="M 54.9316 0 L 57.666 0 L 30.5664 -70.459 L 28.0762 -70.459 L 0.976562 0 L 3.66211 0 L 12.9395 -24.4629 L 45.7031 -24.4629 Z M 29.1992 -67.0898 L 29.4434 -67.0898 L 44.8242 -26.709 L 13.8184 -26.709 Z"/>
  </g>
  <line id="Baseline-L" style="fill:none;stroke:#27AAE1;opacity:1;stroke-width:0.577;" x1="263" x2="3036" y1="1556" y2="1556"/>
  <line id="Capline-L" style="fill:none;stroke:#27AAE1;opacity:1;stroke-width:0.577;" x1="263" x2="3036" y1="1485.54" y2="1485.54"/>
  <rect height="119.336" id="left-margin" style="fill:#00AEEF;stroke:none;opacity:0.4;" width="12.4512" x="1383.02" y="1030.79"/>
  <rect height="119.336" id="right-margin" style="fill:#00AEEF;stroke:none;opacity:0.4;" width="12.4512" x="1504.21" y="1030.79"/>
 </g>
 <g id="Symbols">
  <g id="Black-L" transform="matrix(1 0 0 1 2840.92 1556)">
   <path d="M 39.7461 29.1992 L 145.215 29.1992 C 160.4 29.1992 168.896 20.752 168.896 5.61523 L 168.896 -57.1289 C 168.896 -72.2656 160.4 -80.7129 145.215 -80.7129 L 134.277 -80.7129 L 134.277 -83.9844 C 134.277 -98.0957 126.367 -105.762 112.451 -105.762 L 72.4609 -105.762 C 58.7891 -105.762 50.6836 -98.0957 50.6836 -83.9844 L 50.6836 -80.7129 L 39.7461 -80.7129 C 24.5605 -80.7129 16.0645 -72.2656 16.0645 -57.1289 L 16.0645 5.61523 C 16.0645 20.752 24.5605 29.1992 39.7461 29.1992 Z M 68.8477 -85.5469 C 68.8477 -88.3789 70.5078 -89.9414 73.2422 -89.9414 L 111.67 -89.9414 C 114.404 -89.9414 116.064 -88.3789 116.064 -85.5469 L 116.064 -80.7129 L 68.8477 -80.7129 Z M 36.3281 -57.0312 C 36.3281 -60.3516 38.1348 -62.207 41.3574 -62.207 L 143.604 -62.207 C 146.826 -62.207 148.633 -60.3516 148.633 -57.0312 L 148.633 -43.2617 L 36.3281 -43.2617 Z M 41.3574 10.7422 C 38.1348 10.7422 36.3281 8.93555 36.3281 5.61523 L 36.3281 -27.7832 L 67.8223 -27.7832 L 67.8223 -25.0977 C 67.8223 -18.4082 71.6797 -14.4531 78.418 -14.4531 L 106.543 -14.4531 C 113.184 -14.4531 117.139 -18.4082 117.139 -25.0977 L 117.139 -27.7832 L 148.633 -27.7832 L 148.633 5.61523 C 148.633 8.93555 146.826 10.7422 143.604 10.7422 Z"/>
  </g>
  <g id="Heavy-L" transform="matrix(1 0 0 1 2545.99 1556)">
   <path d="M 38.5254 28.2715 L 142.92 28.2715 C 157.422 28.2715 165.332 20.4102 165.332 5.95703 L 165.332 -56.5918 C 165.332 -71.0449 157.422 -78.9062 142.92 -78.9062 L 131.104 -78.9062 L 131.104 -82.666 C 131.104 -96.1426 123.73 -103.223 110.498 -103.223 L 70.9473 -103.223 C 57.959 -103.223 50.293 -96.1426 50.293 -82.666 L 50.293 -78.9062 L 38.5254 -78.9062 C 24.0234 -78.9062 16.0645 -71.0449 16.0645 -56.5918 L 16.0645 5.95703 C 16.0645 20.4102 24.0234 28.2715 38.5254 28.2715 Z M 66.1621 -83.9355 C 66.1621 -87.4512 68.0664 -89.3066 71.5332 -89.3066 L 109.912 -89.3066 C 113.33 -89.3066 115.234 -87.4512 115.234 -83.9355 L 115.234 -78.9062 L 66.1621 -78.9062 Z M 33.5938 -56.4453 C 33.5938 -60.5957 35.7422 -62.7441 39.7949 -62.7441 L 141.65 -62.7441 C 145.654 -62.7441 147.852 -60.5957 147.852 -56.4453 L 147.852 -41.8945 L 33.5938 -41.8945 Z M 39.7949 12.1094 C 35.7422 12.1094 33.5938 10.0098 33.5938 5.85938 L 33.5938 -28.125 L 65.7715 -28.125 L 65.7715 -25.1465 C 65.7715 -18.75 69.5312 -14.9414 75.9766 -14.9414 L 105.469 -14.9414 C 111.865 -14.9414 115.625 -18.75 115.625 -25.1465 L 115.625 -28.125 L 147.852 -28.125 L 147.852 5.85938 C 147.852 10.0098 145.654 12.1094 141.65 12.1094 Z"/>
  </g>
  <g id="Bold-L" transform="matrix(1 0 0 1 2251.23 1556)">
   <path d="M 37.1582 27.2461 L 140.332 27.2461 C 154.102 27.2461 161.426 20.0195 161.426 6.29883 L 161.426 -56.0059 C 161.426 -69.6777 154.102 -76.9043 140.332 -76.9043 L 127.588 -76.9043 L 127.588 -81.1523 C 127.588 -93.9941 120.801 -100.391 108.252 -100.391 L 69.2383 -100.391 C 57.0312 -100.391 49.9023 -93.9941 49.9023 -81.1523 L 49.9023 -76.9043 L 37.1582 -76.9043 C 23.3887 -76.9043 16.0645 -69.6777 16.0645 -56.0059 L 16.0645 6.29883 C 16.0645 20.0195 23.3887 27.2461 37.1582 27.2461 Z M 63.1348 -82.1777 C 63.1348 -86.4258 65.332 -88.5742 69.5801 -88.5742 L 107.91 -88.5742 C 112.158 -88.5742 114.307 -86.4258 114.307 -82.1777 L 114.307 -76.9043 L 63.1348 -76.9043 Z M 30.5176 -55.7617 C 30.5176 -60.8398 33.1055 -63.3789 38.0371 -63.3789 L 139.453 -63.3789 C 144.385 -63.3789 146.973 -60.8398 146.973 -55.7617 L 146.973 -40.332 L 30.5176 -40.332 Z M 38.0371 13.7207 C 33.1055 13.7207 30.5176 11.1816 30.5176 6.10352 L 30.5176 -28.5645 L 63.5254 -28.5645 L 63.5254 -25.1953 C 63.5254 -19.0918 67.0898 -15.4785 73.2422 -15.4785 L 104.248 -15.4785 C 110.352 -15.4785 113.965 -19.0918 113.965 -25.1953 L 113.965 -28.5645 L 146.973 -28.5645 L 146.973 6.10352 C 146.973 11.1816 144.385 13.7207 139.453 13.7207 Z"/>
  </g>
  <g id="Semibold-L" transform="matrix(1 0 0 1 1955.89 1556)">
   <path d="M 36.2305 26.5137 L 138.525 26.5137 C 151.807 26.5137 158.691 19.7266 158.691 6.54297 L 158.691 -55.5664 C 158.691 -68.75 151.807 -75.5371 138.525 -75.5371 L 125.146 -75.5371 L 125.146 -80.0781 C 125.146 -92.4805 118.75 -98.4375 106.738 -98.4375 L 68.0176 -98.4375 C 56.3965 -98.4375 49.6094 -92.4805 49.6094 -80.0781 L 49.6094 -75.5371 L 36.2305 -75.5371 C 22.998 -75.5371 16.0645 -68.75 16.0645 -55.5664 L 16.0645 6.54297 C 16.0645 19.7266 22.998 26.5137 36.2305 26.5137 Z M 61.084 -80.957 C 61.084 -85.7422 63.4277 -88.0859 68.2129 -88.0859 L 106.543 -88.0859 C 111.328 -88.0859 113.672 -85.7422 113.672 -80.957 L 113.672 -75.5371 L 61.084 -75.5371 Z M 28.418 -55.2734 C 28.418 -60.9863 31.25 -63.8184 36.8164 -63.8184 L 137.939 -63.8184 C 143.506 -63.8184 146.338 -60.9863 146.338 -55.2734 L 146.338 -39.2578 L 28.418 -39.2578 Z M 36.8164 14.7949 C 31.25 14.7949 28.418 11.9629 28.418 6.29883 L 28.418 -28.8574 L 61.9629 -28.8574 L 61.9629 -25.2441 C 61.9629 -19.3359 65.4297 -15.8691 71.3867 -15.8691 L 103.369 -15.8691 C 109.326 -15.8691 112.842 -19.3359 112.842 -25.2441 L 112.842 -28.8574 L 146.338 -28.8574 L 146.338 6.29883 C 146.338 11.9629 143.506 14.7949 137.939 14.7949 Z"/>
  </g>
  <g id="Medium-L" transform="matrix(1 0 0 1 1660.2 1556)">
   <path d="M 35.498 25.9766 L 137.207 25.9766 C 150.098 25.9766 156.641 19.5312 156.641 6.73828 L 156.641 -55.2734 C 156.641 -68.0664 150.098 -74.5117 137.207 -74.5117 L 123.34 -74.5117 L 123.34 -79.2969 C 123.34 -91.3574 117.188 -96.9727 105.566 -96.9727 L 67.1387 -96.9727 C 55.957 -96.9727 49.3652 -91.3574 49.3652 -79.2969 L 49.3652 -74.5117 L 35.498 -74.5117 C 22.6562 -74.5117 16.0645 -68.0664 16.0645 -55.2734 L 16.0645 6.73828 C 16.0645 19.5312 22.6562 25.9766 35.498 25.9766 Z M 59.5215 -80.0293 C 59.5215 -85.2051 62.0117 -87.6953 67.1875 -87.6953 L 105.518 -87.6953 C 110.693 -87.6953 113.184 -85.2051 113.184 -80.0293 L 113.184 -74.5117 L 59.5215 -74.5117 Z M 26.8066 -54.9316 C 26.8066 -61.1328 29.8828 -64.1602 35.8887 -64.1602 L 136.816 -64.1602 C 142.822 -64.1602 145.898 -61.1328 145.898 -54.9316 L 145.898 -38.4766 L 26.8066 -38.4766 Z M 35.8887 15.625 C 29.8828 15.625 26.8066 12.5977 26.8066 6.39648 L 26.8066 -29.0527 L 60.7422 -29.0527 L 60.7422 -25.293 C 60.7422 -19.4824 64.1602 -16.1133 69.9707 -16.1133 L 102.734 -16.1133 C 108.545 -16.1133 111.963 -19.4824 111.963 -25.293 L 111.963 -29.0527 L 145.898 -29.0527 L 145.898 6.39648 C 145.898 12.5977 142.822 15.625 136.816 15.625 Z"/>
  </g>
  <g id="Regular-L" transform="matrix(1 0 0 1 1364.83 1556)">
   <path d="M 34.5703 25.2441 L 135.449 25.2441 C 147.852 25.2441 153.955 19.2383 153.955 6.98242 L 153.955 -54.8828 C 153.955 -67.1387 147.852 -73.1445 135.449 -73.1445 L 120.898 -73.1445 L 120.898 -78.2715 C 120.898 -89.8926 115.186 -95.0195 104.053 -95.0195 L 65.9668 -95.0195 C 55.3223 -95.0195 49.1211 -89.8926 49.1211 -78.2715 L 49.1211 -73.1445 L 34.5703 -73.1445 C 22.2168 -73.1445 16.0645 -67.1387 16.0645 -54.8828 L 16.0645 6.98242 C 16.0645 19.2383 22.2168 25.2441 34.5703 25.2441 Z M 57.4707 -78.8086 C 57.4707 -84.5215 60.1562 -87.207 65.8691 -87.207 L 104.15 -87.207 C 109.863 -87.207 112.549 -84.5215 112.549 -78.8086 L 112.549 -73.1445 L 57.4707 -73.1445 Z M 24.707 -54.4922 C 24.707 -61.2793 28.0762 -64.5508 34.668 -64.5508 L 135.352 -64.5508 C 141.943 -64.5508 145.312 -61.2793 145.312 -54.4922 L 145.312 -37.4512 L 24.707 -37.4512 Z M 34.668 16.6504 C 28.0762 16.6504 24.707 13.3789 24.707 6.5918 L 24.707 -29.3457 L 59.2285 -29.3457 L 59.2285 -25.3418 C 59.2285 -19.7266 62.5 -16.5039 68.1152 -16.5039 L 101.904 -16.5039 C 107.52 -16.5039 110.791 -19.7266 110.791 -25.3418 L 110.791 -29.3457 L 145.312 -29.3457 L 145.312 6.5918 C 145.312 13.3789 141.943 16.6504 135.352 16.6504 Z"/>
  </g>
  <g id="Light-L" transform="matrix(1 0 0 1 1069.78 1556)">
   <path d="M 33.252 24.3164 L 133.447 24.3164 C 144.922 24.3164 150.635 18.75 150.635 7.32422 L 150.635 -55.2246 C 150.635 -66.6992 144.922 -72.2656 133.447 -72.2656 L 117.334 -72.2656 L 117.334 -78.9062 C 117.334 -89.6484 112.158 -94.3848 101.758 -94.3848 L 64.9414 -94.3848 C 54.834 -94.3848 49.3652 -89.6484 49.3652 -78.9062 L 49.3652 -72.2656 L 33.252 -72.2656 C 21.7773 -72.2656 16.0645 -66.6992 16.0645 -55.2246 L 16.0645 7.32422 C 16.0645 18.75 21.7773 24.3164 33.252 24.3164 Z M 55.8105 -79.248 C 55.8105 -85.5957 58.4961 -88.3301 64.8438 -88.3301 L 101.807 -88.3301 C 108.154 -88.3301 110.889 -85.5957 110.889 -79.248 L 110.889 -72.2656 L 55.8105 -72.2656 Z M 22.7051 -54.9805 C 22.7051 -62.3047 26.0742 -65.7227 33.3008 -65.7227 L 133.398 -65.7227 C 140.576 -65.7227 143.994 -62.3047 143.994 -54.9805 L 143.994 -37.3535 L 22.7051 -37.3535 Z M 33.3008 17.8223 C 26.0742 17.8223 22.7051 14.4043 22.7051 7.08008 L 22.7051 -31.1523 L 56.2988 -31.1523 L 56.2988 -26.9531 C 56.2988 -20.8008 59.9609 -17.1875 66.1621 -17.1875 L 100.537 -17.1875 C 106.738 -17.1875 110.4 -20.8008 110.4 -26.9531 L 110.4 -31.1523 L 143.994 -31.1523 L 143.994 7.08008 C 143.994 14.4043 140.576 17.8223 133.398 17.8223 Z"/>
  </g>
  <g id="Thin-L" transform="matrix(1 0 0 1 775.27 1556)">
   <path d="M 31.4941 23.0957 L 130.811 23.0957 C 141.064 23.0957 146.24 18.1152 146.24 7.8125 L 146.24 -55.7129 C 146.24 -66.0645 141.064 -71.0449 130.811 -71.0449 L 112.549 -71.0449 L 112.549 -79.7363 C 112.549 -89.3066 108.154 -93.5059 98.7305 -93.5059 L 63.5742 -93.5059 C 54.1992 -93.5059 49.7559 -89.3066 49.7559 -79.7363 L 49.7559 -71.0449 L 31.4941 -71.0449 C 21.1914 -71.0449 16.0645 -66.0645 16.0645 -55.7129 L 16.0645 7.8125 C 16.0645 18.1152 21.1914 23.0957 31.4941 23.0957 Z M 53.6133 -79.834 C 53.6133 -87.0117 56.3477 -89.7949 63.5254 -89.7949 L 98.7305 -89.7949 C 105.908 -89.7949 108.643 -87.0117 108.643 -79.834 L 108.643 -71.0449 L 53.6133 -71.0449 Z M 19.9707 -55.6641 C 19.9707 -63.7207 23.4863 -67.2852 31.4941 -67.2852 L 130.811 -67.2852 C 138.77 -67.2852 142.285 -63.7207 142.285 -55.6641 L 142.285 -37.3047 L 19.9707 -37.3047 Z M 31.4941 19.3359 C 23.4863 19.3359 19.9707 15.7715 19.9707 7.76367 L 19.9707 -33.5938 L 52.4902 -33.5938 L 52.4902 -29.1504 C 52.4902 -22.2656 56.5918 -18.1152 63.5742 -18.1152 L 98.7305 -18.1152 C 105.713 -18.1152 109.814 -22.2656 109.814 -29.1504 L 109.814 -33.5938 L 142.285 -33.5938 L 142.285 7.76367 C 142.285 15.7715 138.77 19.3359 130.811 19.3359 Z"/>
  </g>
  <g id="Ultralight-L" transform="matrix(1 0 0 1 479.682 1556)">
   <path d="M 30.5664 22.5098 L 129.443 22.5098 C 139.111 22.5098 143.994 17.8223 143.994 8.00781 L 143.994 -55.957 C 143.994 -65.7715 139.111 -70.459 129.443 -70.459 L 110.107 -70.459 L 110.107 -80.1758 C 110.107 -89.1602 106.104 -93.0176 97.168 -93.0176 L 62.8418 -93.0176 C 53.8574 -93.0176 49.9512 -89.1602 49.9512 -80.1758 L 49.9512 -70.459 L 30.5664 -70.459 C 20.8984 -70.459 16.0645 -65.7715 16.0645 -55.957 L 16.0645 8.00781 C 16.0645 17.8223 20.8984 22.5098 30.5664 22.5098 Z M 52.5391 -80.127 C 52.5391 -87.7441 55.2734 -90.5762 62.8418 -90.5762 L 97.168 -90.5762 C 104.785 -90.5762 107.52 -87.7441 107.52 -80.127 L 107.52 -70.459 L 52.5391 -70.459 Z M 18.6035 -56.0059 C 18.6035 -64.4043 22.168 -68.0664 30.5664 -68.0664 L 129.443 -68.0664 C 137.842 -68.0664 141.406 -64.4043 141.406 -56.0059 L 141.406 -37.2559 L 18.6035 -37.2559 Z M 30.5664 20.1172 C 22.168 20.1172 18.6035 16.4551 18.6035 8.05664 L 18.6035 -34.8145 L 50.4883 -34.8145 L 50.4883 -30.2734 C 50.4883 -22.998 54.8828 -18.6035 62.207 -18.6035 L 97.8027 -18.6035 C 105.127 -18.6035 109.521 -22.998 109.521 -30.2734 L 109.521 -34.8145 L 141.406 -34.8145 L 141.406 8.05664 C 141.406 16.4551 137.842 20.1172 129.443 20.1172 Z"/>
  </g>
  <g id="Black-M" transform="matrix(1 0 0 1 2860.26 1126)">
   <path d="M 31.7383 15.4785 L 114.6 15.4785 C 126.758 15.4785 133.838 8.39844 133.838 -3.80859 L 133.838 -53.0762 C 133.838 -65.2832 126.758 -72.3633 114.6 -72.3633 L 106.396 -72.3633 L 106.396 -75.1953 C 106.396 -86.4258 99.8535 -92.9688 88.623 -92.9688 L 57.7148 -92.9688 C 46.4355 -92.9688 39.9414 -86.4258 39.9414 -75.1953 L 39.9414 -72.3633 L 31.7383 -72.3633 C 19.5312 -72.3633 12.4512 -65.2832 12.4512 -53.0762 L 12.4512 -3.80859 C 12.4512 8.39844 19.5312 15.4785 31.7383 15.4785 Z M 56.1035 -76.6113 C 56.1035 -78.2227 57.0801 -79.1504 58.5938 -79.1504 L 87.6953 -79.1504 C 89.209 -79.1504 90.1855 -78.2227 90.1855 -76.6113 L 90.1855 -72.3633 L 56.1035 -72.3633 Z M 30.7617 -53.2227 C 30.7617 -54.9805 31.6895 -56.0059 33.4473 -56.0059 L 112.842 -56.0059 C 114.6 -56.0059 115.576 -54.9805 115.576 -53.2227 L 115.576 -43.2617 L 30.7617 -43.2617 Z M 33.4473 -0.878906 C 31.6895 -0.878906 30.7617 -1.85547 30.7617 -3.61328 L 30.7617 -29.9316 L 53.7598 -29.9316 L 53.7598 -28.1738 C 53.7598 -22.3633 57.1289 -18.8477 62.9883 -18.8477 L 83.3008 -18.8477 C 89.1113 -18.8477 92.5781 -22.3633 92.5781 -28.1738 L 92.5781 -29.9316 L 115.576 -29.9316 L 115.576 -3.61328 C 115.576 -1.85547 114.6 -0.878906 112.842 -0.878906 Z"/>
  </g>
  <g id="Heavy-M" transform="matrix(1 0 0 1 2565.03 1126)">
   <path d="M 30.7617 14.6973 L 112.598 14.6973 C 124.268 14.6973 130.859 8.10547 130.859 -3.56445 L 130.859 -52.4414 C 130.859 -64.1113 124.268 -70.6543 112.598 -70.6543 L 103.857 -70.6543 L 103.857 -73.5352 C 103.857 -84.375 97.7539 -90.3809 87.0117 -90.3809 L 56.2988 -90.3809 C 45.6543 -90.3809 39.4531 -84.375 39.4531 -73.5352 L 39.4531 -70.6543 L 30.7617 -70.6543 C 19.043 -70.6543 12.4512 -64.1113 12.4512 -52.4414 L 12.4512 -3.56445 C 12.4512 8.10547 19.043 14.6973 30.7617 14.6973 Z M 53.6133 -74.7559 C 53.6133 -76.9531 54.834 -78.125 56.9336 -78.125 L 86.377 -78.125 C 88.4766 -78.125 89.6973 -76.9531 89.6973 -74.7559 L 89.6973 -70.6543 L 53.6133 -70.6543 Z M 28.2715 -52.4414 C 28.2715 -54.9316 29.5898 -56.2988 32.0801 -56.2988 L 111.23 -56.2988 C 113.721 -56.2988 115.039 -54.9316 115.039 -52.4414 L 115.039 -41.7969 L 28.2715 -41.7969 Z M 32.0801 0.341797 C 29.5898 0.341797 28.2715 -0.976562 28.2715 -3.4668 L 28.2715 -29.8828 L 52.2949 -29.8828 L 52.2949 -27.7832 C 52.2949 -22.4121 55.4199 -19.1895 60.8398 -19.1895 L 82.4707 -19.1895 C 87.8418 -19.1895 91.0156 -22.4121 91.0156 -27.7832 L 91.0156 -29.8828 L 115.039 -29.8828 L 115.039 -3.4668 C 115.039 -0.976562 113.721 0.341797 111.23 0.341797 Z"/>
  </g>
  <g id="Bold-M" transform="matrix(1 0 0 1 2269.98 1126)">
   <path d="M 29.6387 13.8184 L 110.352 13.8184 C 121.484 13.8184 127.539 7.8125 127.539 -3.27148 L 127.539 -51.6602 C 127.539 -62.7441 121.484 -68.75 110.352 -68.75 L 101.074 -68.75 L 101.074 -71.6797 C 101.074 -82.0801 95.4102 -87.4512 85.2539 -87.4512 L 54.6875 -87.4512 C 44.7754 -87.4512 38.916 -82.0801 38.916 -71.6797 L 38.916 -68.75 L 29.6387 -68.75 C 18.5059 -68.75 12.4512 -62.7441 12.4512 -51.6602 L 12.4512 -3.27148 C 12.4512 7.8125 18.5059 13.8184 29.6387 13.8184 Z M 50.7812 -72.6562 C 50.7812 -75.5371 52.2949 -77.002 55.0781 -77.002 L 84.8633 -77.002 C 87.6465 -77.002 89.209 -75.5371 89.209 -72.6562 L 89.209 -68.75 L 50.7812 -68.75 Z M 25.5371 -51.5625 C 25.5371 -54.9316 27.2949 -56.6406 30.5664 -56.6406 L 109.424 -56.6406 C 112.695 -56.6406 114.453 -54.9316 114.453 -51.5625 L 114.453 -40.1367 L 25.5371 -40.1367 Z M 30.5664 1.70898 C 27.2949 1.70898 25.5371 0 25.5371 -3.36914 L 25.5371 -29.7852 L 50.6348 -29.7852 L 50.6348 -27.3926 C 50.6348 -22.4609 53.5156 -19.5801 58.4473 -19.5801 L 81.543 -19.5801 C 86.4258 -19.5801 89.3555 -22.4609 89.3555 -27.3926 L 89.3555 -29.7852 L 114.453 -29.7852 L 114.453 -3.36914 C 114.453 0 112.695 1.70898 109.424 1.70898 Z"/>
  </g>
  <g id="Semibold-M" transform="matrix(1 0 0 1 1974.42 1126)">
   <path d="M 28.9062 13.2324 L 108.789 13.2324 C 119.58 13.2324 125.244 7.61719 125.244 -3.07617 L 125.244 -51.1719 C 125.244 -61.8164 119.58 -67.4316 108.789 -67.4316 L 99.1211 -67.4316 L 99.1211 -70.4102 C 99.1211 -80.4688 93.7988 -85.4492 84.082 -85.4492 L 53.6133 -85.4492 C 44.1895 -85.4492 38.5254 -80.4688 38.5254 -70.4102 L 38.5254 -67.4316 L 28.9062 -67.4316 C 18.1152 -67.4316 12.4512 -61.8164 12.4512 -51.1719 L 12.4512 -3.07617 C 12.4512 7.61719 18.1152 13.2324 28.9062 13.2324 Z M 48.8281 -71.2402 C 48.8281 -74.5605 50.5859 -76.2207 53.8086 -76.2207 L 83.8379 -76.2207 C 87.1094 -76.2207 88.8184 -74.5605 88.8184 -71.2402 L 88.8184 -67.4316 L 48.8281 -67.4316 Z M 23.6328 -50.9277 C 23.6328 -54.8828 25.6836 -56.8848 29.4922 -56.8848 L 108.203 -56.8848 C 112.012 -56.8848 114.062 -54.8828 114.062 -50.9277 L 114.062 -38.9648 L 23.6328 -38.9648 Z M 29.4922 2.68555 C 25.6836 2.68555 23.6328 0.683594 23.6328 -3.27148 L 23.6328 -29.7363 L 49.5117 -29.7363 L 49.5117 -27.0996 C 49.5117 -22.5098 52.1973 -19.873 56.7871 -19.873 L 80.9082 -19.873 C 85.498 -19.873 88.1836 -22.5098 88.1836 -27.0996 L 88.1836 -29.7363 L 114.062 -29.7363 L 114.062 -3.27148 C 114.062 0.683594 112.012 2.68555 108.203 2.68555 Z"/>
  </g>
  <g id="Medium-M" transform="matrix(1 0 0 1 1678.59 1126)">
   <path d="M 28.3203 12.793 L 107.617 12.793 C 118.115 12.793 123.486 7.4707 123.486 -2.92969 L 123.486 -50.7324 C 123.486 -61.1328 118.115 -66.4551 107.617 -66.4551 L 97.6562 -66.4551 L 97.6562 -69.4824 C 97.6562 -79.2969 92.5781 -83.9355 83.1543 -83.9355 L 52.7832 -83.9355 C 43.75 -83.9355 38.2812 -79.2969 38.2812 -69.4824 L 38.2812 -66.4551 L 28.3203 -66.4551 C 17.8711 -66.4551 12.4512 -61.1328 12.4512 -50.7324 L 12.4512 -2.92969 C 12.4512 7.4707 17.8711 12.793 28.3203 12.793 Z M 47.3633 -70.166 C 47.3633 -73.7793 49.2676 -75.6348 52.8809 -75.6348 L 83.0566 -75.6348 C 86.6699 -75.6348 88.5742 -73.7793 88.5742 -70.166 L 88.5742 -66.4551 L 47.3633 -66.4551 Z M 22.168 -50.4395 C 22.168 -54.8828 24.4629 -57.0801 28.7109 -57.0801 L 107.227 -57.0801 C 111.475 -57.0801 113.721 -54.8828 113.721 -50.4395 L 113.721 -38.0859 L 22.168 -38.0859 Z M 28.7109 3.41797 C 24.4629 3.41797 22.168 1.2207 22.168 -3.22266 L 22.168 -29.6875 L 48.6328 -29.6875 L 48.6328 -26.9043 C 48.6328 -22.5586 51.1719 -20.0684 55.5176 -20.0684 L 80.4199 -20.0684 C 84.7656 -20.0684 87.2559 -22.5586 87.2559 -26.9043 L 87.2559 -29.6875 L 113.721 -29.6875 L 113.721 -3.22266 C 113.721 1.2207 111.475 3.41797 107.227 3.41797 Z"/>
  </g>
  <g id="Regular-M" transform="matrix(1 0 0 1 1383.02 1126)">
   <path d="M 27.5391 12.1582 L 106.104 12.1582 C 116.211 12.1582 121.191 7.27539 121.191 -2.73438 L 121.191 -50.2441 C 121.191 -60.2051 116.211 -65.1367 106.104 -65.1367 L 95.752 -65.1367 L 95.752 -68.2129 C 95.752 -77.7344 91.0156 -81.9336 81.9336 -81.9336 L 51.709 -81.9336 C 43.1152 -81.9336 37.8906 -77.7344 37.8906 -68.2129 L 37.8906 -65.1367 L 27.5391 -65.1367 C 17.4805 -65.1367 12.4512 -60.2051 12.4512 -50.2441 L 12.4512 -2.73438 C 12.4512 7.27539 17.4805 12.1582 27.5391 12.1582 Z M 45.459 -68.75 C 45.459 -72.8027 47.5098 -74.8535 51.6113 -74.8535 L 82.0312 -74.8535 C 86.1328 -74.8535 88.1836 -72.8027 88.1836 -68.75 L 88.1836 -65.1367 L 45.459 -65.1367 Z M 20.3125 -49.8535 C 20.3125 -54.834 22.8516 -57.3242 27.6367 -57.3242 L 106.006 -57.3242 C 110.791 -57.3242 113.33 -54.834 113.33 -49.8535 L 113.33 -36.9629 L 20.3125 -36.9629 Z M 27.6367 4.3457 C 22.8516 4.3457 20.3125 1.9043 20.3125 -3.125 L 20.3125 -29.6387 L 47.5586 -29.6387 L 47.5586 -26.6113 C 47.5586 -22.6074 49.8535 -20.3125 53.9062 -20.3125 L 79.7363 -20.3125 C 83.7891 -20.3125 86.1328 -22.6074 86.1328 -26.6113 L 86.1328 -29.6387 L 113.33 -29.6387 L 113.33 -3.125 C 113.33 1.9043 110.791 4.3457 106.006 4.3457 Z"/>
  </g>
  <g id="Light-M" transform="matrix(1 0 0 1 1087.8 1126)">
   <path d="M 26.3672 11.3281 L 104.297 11.3281 C 113.623 11.3281 118.213 6.83594 118.213 -2.39258 L 118.213 -50.5859 C 118.213 -59.8145 113.623 -64.3066 104.297 -64.3066 L 92.5293 -64.3066 L 92.5293 -68.7988 C 92.5293 -77.4902 88.2812 -81.3477 79.8828 -81.3477 L 50.7812 -81.3477 C 42.7246 -81.3477 38.1348 -77.4902 38.1348 -68.7988 L 38.1348 -64.3066 L 26.3672 -64.3066 C 17.0898 -64.3066 12.4512 -59.8145 12.4512 -50.5859 L 12.4512 -2.39258 C 12.4512 6.83594 17.0898 11.3281 26.3672 11.3281 Z M 43.9941 -69.1406 C 43.9941 -73.7793 46.0938 -75.8789 50.7324 -75.8789 L 79.9805 -75.8789 C 84.6191 -75.8789 86.6699 -73.7793 86.6699 -69.1406 L 86.6699 -64.3066 L 43.9941 -64.3066 Z M 18.5059 -50.293 C 18.5059 -55.7617 21.0938 -58.3496 26.416 -58.3496 L 104.248 -58.3496 C 109.57 -58.3496 112.158 -55.7617 112.158 -50.293 L 112.158 -36.9141 L 18.5059 -36.9141 Z M 26.416 5.37109 C 21.0938 5.37109 18.5059 2.7832 18.5059 -2.68555 L 18.5059 -31.25 L 44.9219 -31.25 L 44.9219 -28.0762 C 44.9219 -23.584 47.6074 -20.9473 52.1484 -20.9473 L 78.5156 -20.9473 C 83.0566 -20.9473 85.7422 -23.584 85.7422 -28.0762 L 85.7422 -31.25 L 112.158 -31.25 L 112.158 -2.68555 C 112.158 2.7832 109.57 5.37109 104.248 5.37109 Z"/>
  </g>
  <g id="Thin-M" transform="matrix(1 0 0 1 793.068 1126)">
   <path d="M 24.8047 10.2539 L 101.953 10.2539 C 110.156 10.2539 114.258 6.25 114.258 -2.00195 L 114.258 -51.0254 C 114.258 -59.2773 110.156 -63.2324 101.953 -63.2324 L 88.2324 -63.2324 L 88.2324 -69.5312 C 88.2324 -77.1973 84.7168 -80.5664 77.1973 -80.5664 L 49.5605 -80.5664 C 42.1387 -80.5664 38.4766 -77.1973 38.4766 -69.5312 L 38.4766 -63.2324 L 24.8047 -63.2324 C 16.5527 -63.2324 12.4512 -59.2773 12.4512 -51.0254 L 12.4512 -2.00195 C 12.4512 6.25 16.5527 10.2539 24.8047 10.2539 Z M 42.041 -69.6777 C 42.041 -75.0488 44.1406 -77.1973 49.5117 -77.1973 L 77.1973 -77.1973 C 82.5684 -77.1973 84.668 -75.0488 84.668 -69.6777 L 84.668 -63.2324 L 42.041 -63.2324 Z M 16.0645 -50.9277 C 16.0645 -56.9824 18.7988 -59.7168 24.8047 -59.7168 L 101.904 -59.7168 C 107.959 -59.7168 110.645 -56.9824 110.645 -50.9277 L 110.645 -36.8652 L 16.0645 -36.8652 Z M 24.8047 6.73828 C 18.7988 6.73828 16.0645 4.00391 16.0645 -2.05078 L 16.0645 -33.4473 L 41.5039 -33.4473 L 41.5039 -30.0293 C 41.5039 -24.8535 44.5801 -21.7773 49.8047 -21.7773 L 76.9043 -21.7773 C 82.1289 -21.7773 85.2539 -24.8535 85.2539 -30.0293 L 85.2539 -33.4473 L 110.645 -33.4473 L 110.645 -2.05078 C 110.645 4.00391 107.959 6.73828 101.904 6.73828 Z"/>
  </g>
  <g id="Ultralight-M" transform="matrix(1 0 0 1 497.358 1126)">
   <path d="M 23.9746 9.66797 L 100.732 9.66797 C 108.398 9.66797 112.256 5.95703 112.256 -1.75781 L 112.256 -51.2207 C 112.256 -58.9844 108.398 -62.6953 100.732 -62.6953 L 86.084 -62.6953 L 86.084 -69.9219 C 86.084 -77.0508 82.8613 -80.1758 75.7812 -80.1758 L 48.9258 -80.1758 C 41.8457 -80.1758 38.623 -77.0508 38.623 -69.9219 L 38.623 -62.6953 L 23.9746 -62.6953 C 16.3086 -62.6953 12.4512 -58.9844 12.4512 -51.2207 L 12.4512 -1.75781 C 12.4512 5.95703 16.3086 9.66797 23.9746 9.66797 Z M 41.0156 -69.9219 C 41.0156 -75.6836 43.1641 -77.8809 48.9258 -77.8809 L 75.7812 -77.8809 C 81.543 -77.8809 83.6914 -75.6836 83.6914 -69.9219 L 83.6914 -62.6953 L 41.0156 -62.6953 Z M 14.8438 -51.2207 C 14.8438 -57.6172 17.5781 -60.4492 23.9746 -60.4492 L 100.732 -60.4492 C 107.129 -60.4492 109.863 -57.6172 109.863 -51.2207 L 109.863 -36.8164 L 14.8438 -36.8164 Z M 23.9746 7.42188 C 17.5781 7.42188 14.8438 4.63867 14.8438 -1.75781 L 14.8438 -34.5215 L 39.7461 -34.5215 L 39.7461 -31.0547 C 39.7461 -25.5371 43.0664 -22.2168 48.6328 -22.2168 L 76.0742 -22.2168 C 81.6406 -22.2168 84.9609 -25.5371 84.9609 -31.0547 L 84.9609 -34.5215 L 109.863 -34.5215 L 109.863 -1.75781 C 109.863 4.63867 107.129 7.42188 100.732 7.42188 Z"/>
  </g>
  <g id="Black-S" transform="matrix(1 0 0 1 2876.17 696)">
   <path d="M 24.8047 4.44336 L 89.6484 4.44336 C 99.1699 4.44336 104.688 -1.07422 104.688 -10.5957 L 104.688 -49.1699 C 104.688 -58.6914 99.1699 -64.209 89.6484 -64.209 L 83.2031 -64.209 L 83.2031 -66.4062 C 83.2031 -75.1953 78.125 -80.2734 69.3359 -80.2734 L 45.1172 -80.2734 C 36.3281 -80.2734 31.25 -75.1953 31.25 -66.4062 L 31.25 -64.209 L 24.8047 -64.209 C 15.2832 -64.209 9.76562 -58.6914 9.76562 -49.1699 L 9.76562 -10.5957 C 9.76562 -1.07422 15.2832 4.44336 24.8047 4.44336 Z M 43.7988 -67.4805 C 43.7988 -68.7988 44.5801 -69.5312 45.8008 -69.5312 L 68.6523 -69.5312 C 69.873 -69.5312 70.6543 -68.7988 70.6543 -67.4805 L 70.6543 -64.209 L 43.7988 -64.209 Z M 23.9258 -49.2676 C 23.9258 -50.6836 24.707 -51.5137 26.123 -51.5137 L 88.3301 -51.5137 C 89.7461 -51.5137 90.5273 -50.6836 90.5273 -49.2676 L 90.5273 -41.4062 L 23.9258 -41.4062 Z M 26.123 -8.25195 C 24.707 -8.25195 23.9258 -9.0332 23.9258 -10.4492 L 23.9258 -31.0547 L 42.041 -31.0547 L 42.041 -29.6387 C 42.041 -25.1465 44.6777 -22.4121 49.2188 -22.4121 L 65.2344 -22.4121 C 69.7266 -22.4121 72.4121 -25.1465 72.4121 -29.6387 L 72.4121 -31.0547 L 90.5273 -31.0547 L 90.5273 -10.4492 C 90.5273 -9.0332 89.7461 -8.25195 88.3301 -8.25195 Z"/>
  </g>
  <g id="Heavy-S" transform="matrix(1 0 0 1 2580.44 696)">
   <path d="M 24.1699 3.95508 L 88.3301 3.95508 C 97.5586 3.95508 102.734 -1.2207 102.734 -10.4492 L 102.734 -48.6328 C 102.734 -57.8125 97.5586 -62.9883 88.3301 -62.9883 L 81.6406 -62.9883 L 81.6406 -65.0879 C 81.6406 -73.6328 76.8066 -78.3691 68.3594 -78.3691 L 44.1406 -78.3691 C 35.791 -78.3691 30.8594 -73.6328 30.8594 -65.0879 L 30.8594 -62.9883 L 24.1699 -62.9883 C 14.9414 -62.9883 9.76562 -57.8125 9.76562 -48.6328 L 9.76562 -10.4492 C 9.76562 -1.2207 14.9414 3.95508 24.1699 3.95508 Z M 42.041 -66.0156 C 42.041 -67.7246 43.0176 -68.6523 44.6289 -68.6523 L 67.8711 -68.6523 C 69.4824 -68.6523 70.459 -67.7246 70.459 -66.0156 L 70.459 -62.9883 L 42.041 -62.9883 Z M 22.2656 -48.584 C 22.2656 -50.5371 23.291 -51.6113 25.1953 -51.6113 L 87.3047 -51.6113 C 89.209 -51.6113 90.2344 -50.5371 90.2344 -48.584 L 90.2344 -40.2832 L 22.2656 -40.2832 Z M 25.1953 -7.42188 C 23.291 -7.42188 22.2656 -8.44727 22.2656 -10.4004 L 22.2656 -30.8105 L 41.2109 -30.8105 L 41.2109 -29.1992 C 41.2109 -25.0977 43.6035 -22.6074 47.7539 -22.6074 L 64.7461 -22.6074 C 68.8477 -22.6074 71.2891 -25.0977 71.2891 -29.1992 L 71.2891 -30.8105 L 90.2344 -30.8105 L 90.2344 -10.4004 C 90.2344 -8.44727 89.209 -7.42188 87.3047 -7.42188 Z"/>
  </g>
  <g id="Bold-S" transform="matrix(1 0 0 1 2284.83 696)">
   <path d="M 23.4863 3.36914 L 86.8164 3.36914 C 95.752 3.36914 100.537 -1.41602 100.537 -10.2539 L 100.537 -47.998 C 100.537 -56.8359 95.752 -61.6211 86.8164 -61.6211 L 79.8828 -61.6211 L 79.8828 -63.5742 C 79.8828 -71.9238 75.3906 -76.2207 67.2852 -76.2207 L 43.0664 -76.2207 C 35.1562 -76.2207 30.4199 -71.9238 30.4199 -63.5742 L 30.4199 -61.6211 L 23.4863 -61.6211 C 14.5996 -61.6211 9.76562 -56.8359 9.76562 -47.998 L 9.76562 -10.2539 C 9.76562 -1.41602 14.5996 3.36914 23.4863 3.36914 Z M 40.0879 -64.4043 C 40.0879 -66.5039 41.2598 -67.6758 43.3594 -67.6758 L 66.9922 -67.6758 C 69.043 -67.6758 70.2637 -66.5039 70.2637 -64.4043 L 70.2637 -61.6211 L 40.0879 -61.6211 Z M 20.3613 -47.8516 C 20.3613 -50.3906 21.7285 -51.7578 24.2188 -51.7578 L 86.1328 -51.7578 C 88.5742 -51.7578 89.9414 -50.3906 89.9414 -47.8516 L 89.9414 -39.0137 L 20.3613 -39.0137 Z M 24.2188 -6.49414 C 21.7285 -6.49414 20.3613 -7.8125 20.3613 -10.3516 L 20.3613 -30.5664 L 40.2832 -30.5664 L 40.2832 -28.7109 C 40.2832 -25 42.4316 -22.8516 46.1426 -22.8516 L 64.1602 -22.8516 C 67.8711 -22.8516 70.0195 -25 70.0195 -28.7109 L 70.0195 -30.5664 L 89.9414 -30.5664 L 89.9414 -10.3516 C 89.9414 -7.8125 88.5742 -6.49414 86.1328 -6.49414 Z"/>
  </g>
  <g id="Semibold-S" transform="matrix(1 0 0 1 1988.87 696)">
   <path d="M 22.998 2.97852 L 85.791 2.97852 C 94.4824 2.97852 99.0234 -1.51367 99.0234 -10.1074 L 99.0234 -47.5586 C 99.0234 -56.2012 94.4824 -60.6934 85.791 -60.6934 L 78.7109 -60.6934 L 78.7109 -62.5488 C 78.7109 -70.7031 74.3652 -74.707 66.5039 -74.707 L 42.2852 -74.707 C 34.7656 -74.707 30.127 -70.7031 30.127 -62.5488 L 30.127 -60.6934 L 22.998 -60.6934 C 14.3555 -60.6934 9.76562 -56.2012 9.76562 -47.5586 L 9.76562 -10.1074 C 9.76562 -1.51367 14.3555 2.97852 22.998 2.97852 Z M 38.7207 -63.2812 C 38.7207 -65.6738 40.0391 -66.9922 42.4316 -66.9922 L 66.3574 -66.9922 C 68.75 -66.9922 70.1172 -65.6738 70.1172 -63.2812 L 70.1172 -60.6934 L 38.7207 -60.6934 Z M 19.0918 -47.3633 C 19.0918 -50.293 20.6543 -51.8555 23.4863 -51.8555 L 85.3027 -51.8555 C 88.1348 -51.8555 89.7461 -50.293 89.7461 -47.3633 L 89.7461 -38.1348 L 19.0918 -38.1348 Z M 23.4863 -5.85938 C 20.6543 -5.85938 19.0918 -7.37305 19.0918 -10.3516 L 19.0918 -30.3711 L 39.6484 -30.3711 L 39.6484 -28.3691 C 39.6484 -24.9512 41.6016 -22.998 45.0195 -22.998 L 63.7695 -22.998 C 67.1875 -22.998 69.1895 -24.9512 69.1895 -28.3691 L 69.1895 -30.3711 L 89.7461 -30.3711 L 89.7461 -10.3516 C 89.7461 -7.37305 88.1348 -5.85938 85.3027 -5.85938 Z"/>
  </g>
  <g id="Medium-S" transform="matrix(1 0 0 1 1692.72 696)">
   <path d="M 22.6562 2.68555 L 85.0098 2.68555 C 93.5547 2.68555 97.9004 -1.61133 97.9004 -10.0586 L 97.9004 -47.2656 C 97.9004 -55.6641 93.5547 -59.9609 85.0098 -59.9609 L 77.7832 -59.9609 L 77.7832 -61.8164 C 77.7832 -69.8242 73.6328 -73.584 65.9668 -73.584 L 41.6992 -73.584 C 34.4238 -73.584 29.8828 -69.8242 29.8828 -61.8164 L 29.8828 -59.9609 L 22.6562 -59.9609 C 14.1602 -59.9609 9.76562 -55.6641 9.76562 -47.2656 L 9.76562 -10.0586 C 9.76562 -1.61133 14.1602 2.68555 22.6562 2.68555 Z M 37.6953 -62.4023 C 37.6953 -65.0391 39.1602 -66.4551 41.748 -66.4551 L 65.918 -66.4551 C 68.5059 -66.4551 69.9707 -65.0391 69.9707 -62.4023 L 69.9707 -59.9609 L 37.6953 -59.9609 Z M 18.0664 -46.9727 C 18.0664 -50.2441 19.8242 -51.9043 22.9492 -51.9043 L 84.7168 -51.9043 C 87.8418 -51.9043 89.5996 -50.2441 89.5996 -46.9727 L 89.5996 -37.5 L 18.0664 -37.5 Z M 22.9492 -5.37109 C 19.8242 -5.37109 18.0664 -7.03125 18.0664 -10.3027 L 18.0664 -30.2246 L 39.1602 -30.2246 L 39.1602 -28.125 C 39.1602 -24.9023 40.9668 -23.0957 44.1895 -23.0957 L 63.4766 -23.0957 C 66.6504 -23.0957 68.5059 -24.9023 68.5059 -28.125 L 68.5059 -30.2246 L 89.5996 -30.2246 L 89.5996 -10.3027 C 89.5996 -7.03125 87.8418 -5.37109 84.7168 -5.37109 Z"/>
  </g>
  <g id="Regular-S" transform="matrix(1 0 0 1 1396.74 696)">
   <path d="M 22.168 2.29492 L 83.9844 2.29492 C 92.334 2.29492 96.4355 -1.70898 96.4355 -9.91211 L 96.4355 -46.8262 C 96.4355 -55.0293 92.334 -59.0332 83.9844 -59.0332 L 76.6113 -59.0332 L 76.6113 -60.791 C 76.6113 -68.6035 72.6074 -72.1191 65.1855 -72.1191 L 40.9668 -72.1191 C 34.0332 -72.1191 29.5898 -68.6035 29.5898 -60.791 L 29.5898 -59.0332 L 22.168 -59.0332 C 13.916 -59.0332 9.76562 -55.0293 9.76562 -46.8262 L 9.76562 -9.91211 C 9.76562 -1.70898 13.916 2.29492 22.168 2.29492 Z M 36.3281 -61.2793 C 36.3281 -64.209 37.9395 -65.7715 40.8691 -65.7715 L 65.2832 -65.7715 C 68.2129 -65.7715 69.8242 -64.209 69.8242 -61.2793 L 69.8242 -59.0332 L 36.3281 -59.0332 Z M 16.7969 -46.4355 C 16.7969 -50.1465 18.75 -52.002 22.2656 -52.002 L 83.8867 -52.002 C 87.4023 -52.002 89.3555 -50.1465 89.3555 -46.4355 L 89.3555 -36.6211 L 16.7969 -36.6211 Z M 22.2656 -4.73633 C 18.75 -4.73633 16.7969 -6.5918 16.7969 -10.3027 L 16.7969 -30.0293 L 38.5254 -30.0293 L 38.5254 -27.7832 C 38.5254 -24.8535 40.1855 -23.2422 43.0664 -23.2422 L 63.0859 -23.2422 C 66.0156 -23.2422 67.6758 -24.8535 67.6758 -27.7832 L 67.6758 -30.0293 L 89.3555 -30.0293 L 89.3555 -10.3027 C 89.3555 -6.5918 87.4023 -4.73633 83.8867 -4.73633 Z"/>
  </g>
  <g id="Light-S" transform="matrix(1 0 0 1 1101.38 696)">
   <path d="M 21.1426 1.5625 L 82.4219 1.5625 C 90.0391 1.5625 93.75 -2.09961 93.75 -9.61914 L 93.75 -47.1191 C 93.75 -54.6387 90.0391 -58.3496 82.4219 -58.3496 L 73.7305 -58.3496 L 73.7305 -61.2793 C 73.7305 -68.4082 70.2148 -71.582 63.3789 -71.582 L 40.1367 -71.582 C 33.6426 -71.582 29.7852 -68.4082 29.7852 -61.2793 L 29.7852 -58.3496 L 21.1426 -58.3496 C 13.5742 -58.3496 9.76562 -54.6387 9.76562 -47.1191 L 9.76562 -9.61914 C 9.76562 -2.09961 13.5742 1.5625 21.1426 1.5625 Z M 35.0586 -61.6211 C 35.0586 -65.0391 36.6699 -66.6992 40.0879 -66.6992 L 63.4766 -66.6992 C 66.8945 -66.6992 68.5059 -65.0391 68.5059 -61.6211 L 68.5059 -58.3496 L 35.0586 -58.3496 Z M 15.1855 -46.875 C 15.1855 -50.9766 17.2363 -52.9297 21.1914 -52.9297 L 82.373 -52.9297 C 86.3281 -52.9297 88.3301 -50.9766 88.3301 -46.875 L 88.3301 -36.5723 L 15.1855 -36.5723 Z M 21.1914 -3.80859 C 17.2363 -3.80859 15.1855 -5.81055 15.1855 -9.86328 L 15.1855 -31.4941 L 36.2305 -31.4941 L 36.2305 -29.0527 C 36.2305 -25.7324 38.1836 -23.7793 41.5527 -23.7793 L 62.0117 -23.7793 C 65.3809 -23.7793 67.334 -25.7324 67.334 -29.0527 L 67.334 -31.4941 L 88.3301 -31.4941 L 88.3301 -9.86328 C 88.3301 -5.81055 86.3281 -3.80859 82.373 -3.80859 Z"/>
  </g>
  <g id="Thin-S" transform="matrix(1 0 0 1 806.398 696)">
   <path d="M 19.7266 0.634766 L 80.3223 0.634766 C 86.9629 0.634766 90.2832 -2.58789 90.2832 -9.27734 L 90.2832 -47.5098 C 90.2832 -54.1504 86.9629 -57.373 80.3223 -57.373 L 69.9707 -57.373 L 69.9707 -61.9629 C 69.9707 -68.1641 67.041 -70.8984 60.9863 -70.8984 L 39.0625 -70.8984 C 33.1543 -70.8984 30.0781 -68.1641 30.0781 -61.9629 L 30.0781 -57.373 L 19.7266 -57.373 C 13.0859 -57.373 9.76562 -54.1504 9.76562 -47.5098 L 9.76562 -9.27734 C 9.76562 -2.58789 13.0859 0.634766 19.7266 0.634766 Z M 33.3008 -62.1094 C 33.3008 -66.1621 34.9609 -67.8711 39.0625 -67.8711 L 61.0352 -67.8711 C 65.0879 -67.8711 66.748 -66.1621 66.748 -62.1094 L 66.748 -57.373 L 33.3008 -57.373 Z M 13.0859 -47.4121 C 13.0859 -52.0508 15.1855 -54.1504 19.7754 -54.1504 L 80.3223 -54.1504 C 84.9121 -54.1504 87.0117 -52.0508 87.0117 -47.4121 L 87.0117 -36.5234 L 13.0859 -36.5234 Z M 19.7754 -2.63672 C 15.1855 -2.63672 13.0859 -4.73633 13.0859 -9.375 L 13.0859 -33.3984 L 33.1543 -33.3984 L 33.1543 -30.8105 C 33.1543 -26.8555 35.498 -24.5117 39.502 -24.5117 L 60.5957 -24.5117 C 64.5508 -24.5117 66.8945 -26.8555 66.8945 -30.8105 L 66.8945 -33.3984 L 87.0117 -33.3984 L 87.0117 -9.375 C 87.0117 -4.73633 84.9121 -2.63672 80.3223 -2.63672 Z"/>
  </g>
  <g id="Ultralight-S" transform="matrix(1 0 0 1 510.59 696)">
   <path d="M 18.9941 0.0976562 L 79.248 0.0976562 C 85.4004 0.0976562 88.4766 -2.88086 88.4766 -9.08203 L 88.4766 -47.7051 C 88.4766 -53.9062 85.4004 -56.8848 79.248 -56.8848 L 68.0176 -56.8848 L 68.0176 -62.3047 C 68.0176 -68.0664 65.4297 -70.5566 59.7656 -70.5566 L 38.5254 -70.5566 C 32.8613 -70.5566 30.2246 -68.0664 30.2246 -62.3047 L 30.2246 -56.8848 L 18.9941 -56.8848 C 12.8418 -56.8848 9.76562 -53.9062 9.76562 -47.7051 L 9.76562 -9.08203 C 9.76562 -2.88086 12.8418 0.0976562 18.9941 0.0976562 Z M 32.4219 -62.3535 C 32.4219 -66.748 34.082 -68.457 38.5254 -68.457 L 59.7656 -68.457 C 64.1602 -68.457 65.8203 -66.748 65.8203 -62.3535 L 65.8203 -56.8848 L 32.4219 -56.8848 Z M 11.9629 -47.7051 C 11.9629 -52.5879 14.1113 -54.7852 18.9941 -54.7852 L 79.248 -54.7852 C 84.1309 -54.7852 86.2793 -52.5879 86.2793 -47.7051 L 86.2793 -36.4746 L 11.9629 -36.4746 Z M 18.9941 -2.00195 C 14.1113 -2.00195 11.9629 -4.19922 11.9629 -9.08203 L 11.9629 -34.375 L 31.5918 -34.375 L 31.5918 -31.6895 C 31.5918 -27.4414 34.1309 -24.9023 38.4277 -24.9023 L 59.8145 -24.9023 C 64.1113 -24.9023 66.6504 -27.4414 66.6504 -31.6895 L 66.6504 -34.375 L 86.2793 -34.375 L 86.2793 -9.08203 C 86.2793 -4.19922 84.1309 -2.00195 79.248 -2.00195 Z"/>
  </g>
 </g>
</svg>
